<?xml version="1.0" encoding="utf-8"?>
<!-- Generator: Adobe Adobe Illustrator 29.2.0, SVG Export Plug-In . SVG Version: 6.00 Build 0)  -->
<svg version="1.1" id="Layer_1" xmlns="http://www.w3.org/2000/svg" xmlns:xlink="http://www.w3.org/1999/xlink" x="0px" y="0px"
	 viewBox="0 0 2170 472" style="enable-background:new 0 0 2170 472;" xml:space="preserve">
<style type="text/css">
	.st0{fill:#A51F1F;}
	.st1{fill:#DDB444;}
	.st2{fill:none;stroke:#000000;stroke-width:22;stroke-linecap:round;stroke-linejoin:round;}
	.st3{fill:none;stroke:#000000;stroke-width:30;stroke-linecap:round;stroke-linejoin:round;}
	.st4{fill:none;stroke:#000000;stroke-width:21;stroke-linecap:round;stroke-linejoin:round;stroke-miterlimit:3.9939;}
	.st5{fill:none;}
</style>
<g>
	
		<ellipse transform="matrix(0.4549 -0.8906 0.8906 0.4549 191.9357 591.6099)" class="st0" cx="579.21" cy="139.03" rx="47" ry="25.59"/>
	<path class="st1" d="M292.54,82.53l-57.5,25.5l-16.5,11.5c-61,32-151.9,100.1-43.5,42.5c108.4-57.6,192-9.5,98,69l245.5-2.5l7-36
		l-31-64l-55-42l-92-14.5L292.54,82.53z"/>
	<path class="st0" d="M261.54,363.53c-103.6-17.2-130-108.83-131-153l178.5,24.5l190-8.5l150.5-55.5c3.61,49.55-7.78,110.99-14,104
		c-1.33-1.49-58.33,58.17-87.5,86C496.2,369.37,365.14,380.73,261.54,363.53z"/>
	<path class="st0" d="M259.54,430.03c109.5-23-64-77-79-107l353.5-1.5l8,46l-36,17.5l-2.5,33l-73,25h-90L259.54,430.03z"/>
	<path class="st2" d="M511.04,115.53c-7-0.5-23.5-0.5-29,0"/>
	<path class="st3" d="M223.04,119.03c-78.31,9.57-131.94,30.14-147.5,64"/>
	<path class="st4" d="M537.54,100.61c-0.47,0.08,1.66-0.09,1.2,0 M538.74,100.61c-25.84,4.95-26.64,29.95-23.7,40.92l-5,7
		 M538.74,100.61c5.3-14.47,14.08-31.09,43.08-26.66c11.02-10.76,35.79-25.02,46.69,4.07c11.2-1.1,30.13,4.41,16.31,35.28
		c6.01,7.43,6.22,30.23-10.78,49.73"/>
	<path d="M474.33,27.92c-17.86-4.11-38.52-3.02-44.66-1.9c5.72,11.26-2.96,18.76-2.96,36.78c0.5,14.17,0.14,3.18-7.17,21.23
		c29.4,1.36,72.98,45.45,94.5,58c11.63-9.67,4-37.5,48-64.5c15.23-9.34,3.01-23.29,8.72-38.8c-6.6-3.13-15.81-4.11-23.96-3.09
		C494.78,42.15,496.66,33.05,474.33,27.92z"/>
	<path d="M574.01,147.53c1.72-1.25,2.85-3.12,3.15-5.22c0.3-2.1-0.27-4.26-1.56-5.98c-1.29-1.72-3.21-2.87-5.31-3.16
		c-2.1-0.3-4.22,0.27-5.89,1.58l0,0c-6.36,4.67-10.07,13.34-8.89,21.24c0.83,6.15,4.31,12.98,11.73,15.95
		c7.65,2.92,14.79-0.51,18.91-3.74c8.52-6.95,12.52-15.02,16.42-23.17c3.91-8.66,7.24-17.67,8.19-27.91
		c0.37-5.12,0.31-10.72-2.51-16.56c-2.55-6.04-10.58-10.45-16.8-9.72c-23.74,4.37-33.52,22.17-43.58,37.46
		c-6.03,10.34-11.59,21.41-13.38,34.18c-2.54,12.22,4.59,29.78,19.45,32l0.27,0.04c21.17,1.98,42.13-8.66,53.07-26.11
		c3.02-4.67,5.39-9.74,7.18-14.95c0.26-0.74,0.2-1.56-0.14-2.27c-0.34-0.71-0.94-1.26-1.68-1.53c-0.74-0.27-1.55-0.23-2.27,0.1
		c-0.72,0.33-1.28,0.92-1.56,1.66l0,0c-1.81,4.76-4.12,9.29-6.95,13.38c-10.12,15.22-29.18,23.67-46.57,21.46l0.27,0.04
		c-9.46-1.99-13.79-12.26-11.75-22.51c1.74-10.35,7.03-20.53,13.02-30c8.96-14.06,22.2-29.5,35.06-30.75
		c2.83,0.08,3.85,0.81,4.98,3.05c1.07,2.29,1.32,6,0.87,9.75c-0.92,7.6-3.98,15.55-7.75,23.18c-3.5,7.04-7.83,13.85-12.67,17.38
		c-1.14,0.82-2.3,1.37-3.09,1.54c-0.82,0.18-1.17,0.06-1.45-0.07c-0.52-0.17-1.76-1.7-1.9-3.79
		C570.68,151.46,571.76,149.1,574.01,147.53z"/>
	<path d="M325.93,63.94c-1.43,0.2-2.74,0.99-3.64,2.14c-0.9,1.16-1.32,2.6-1.17,4.03c0.15,1.43,0.87,2.75,2,3.69
		c1.13,0.94,2.57,1.42,4.01,1.32l0,0c4.29-0.31,8.89-0.44,13.29-0.41c79.62-0.95,166.02,47.94,164.95,127.97
		c0.21,4.23,0.25,8.35,0.15,12.73c-0.09,3.98,1.42,7.78,4.27,10.55c2.85,2.78,6.8,4.31,10.91,4.26c4.11-0.05,8.03-1.68,10.81-4.53
		c2.78-2.85,4.19-6.68,4.01-10.66l0,0c-0.22-5.11-0.61-9.92-1.2-14.89c-6.34-97.97-113.16-145.13-194.26-137.63
		C335.41,62.82,330.54,63.28,325.93,63.94z"/>
	<path d="M281.81,221.71c-1.24,1.02-2.03,2.55-2.26,4.19c-0.22,1.65,0.14,3.27,1.06,4.58c0.92,1.31,2.32,2.21,3.95,2.56
		c1.62,0.35,3.33,0.12,4.71-0.69l0,0c1.58-0.93,3.16-1.87,4.74-2.8c28.46-16.81,56.92-33.62,85.39-50.43
		c1.58-0.93,3.16-1.87,4.74-2.8c3.44-2.02,5.82-5.28,6.5-9.21c0.69-3.91-0.36-8.17-2.82-11.68s-6.1-5.96-10.02-6.64
		c-3.92-0.7-7.79,0.42-10.88,2.96l0,0c-1.42,1.17-2.84,2.33-4.26,3.5c-25.54,20.99-51.07,41.98-76.61,62.97
		C284.65,219.38,283.23,220.54,281.81,221.71z"/>
	<path d="M195.59,212.66c-1.22,1.11-1.97,2.69-2.09,4.37c-0.12,1.68,0.38,3.32,1.43,4.6s2.57,2.08,4.24,2.28
		c1.67,0.2,3.37-0.23,4.69-1.22l0,0c2.48-1.86,5.04-3.78,7.59-5.67c43.77-31.7,100.35-70.85,142.87-55.5
		c2.1,0.95,4.07,2.06,5.96,3.36c3.31,2.21,7.32,2.96,11.18,2c3.86-0.95,7.27-3.54,9.41-7.1c2.15-3.56,2.85-7.78,1.89-11.64
		c-0.95-3.86-3.49-7.05-6.99-8.95l0,0c-3.6-2.01-7.33-3.65-11.18-4.95c-73.98-14.15-118.13,37.3-161.89,72.03
		C200.31,208.41,197.91,210.57,195.59,212.66z"/>
	<path d="M111.29,185.11c-1.25,1.13-2.01,2.73-2.11,4.43c-0.11,1.7,0.44,3.37,1.54,4.64c1.1,1.28,2.67,2.07,4.36,2.21
		c1.7,0.15,3.39-0.37,4.69-1.44l0,0c4.65-3.82,9.6-7.64,14.56-11.26c44.84-31.99,97.1-57.42,150.3-62.23
		c55.34-7.69,96.26,33.53,99.5,87.37c0.71,5.85,1.15,11.46,1.43,17.7c0.18,3.98,1.93,7.68,4.92,10.3c2.99,2.62,6.98,3.94,11.04,3.66
		c4.06-0.27,7.84-2.11,10.46-5.1c2.62-2.99,3.86-6.9,3.5-10.87l0,0c-0.61-6.94-1.41-13.26-2.52-19.91
		c-5.01-29.56-15.98-60.95-41.42-82.47c-25.4-21.67-59.7-25.8-89.03-22.08c-59.55,8.35-111.32,37.38-156.61,72.63
		C120.94,176.69,115.96,180.89,111.29,185.11z"/>
	<path d="M167.64,149.47c-1.03,1.03-1.6,2.45-1.62,3.93c-0.01,1.48,0.54,2.89,1.55,3.94c1.01,1.05,2.4,1.66,3.87,1.71
		c1.47,0.05,2.91-0.47,3.99-1.46l0,0c4.86-4.45,9.9-8.79,15.02-12.94c45.91-36.68,103.12-65.68,159.76-62.28
		c58.82,2.01,90.87,59.48,95.8,116.08c0.75,6.32,1.28,12.54,1.67,19.25c0.23,3.97,2.03,7.65,5.06,10.23
		c3.03,2.58,7.04,3.84,11.1,3.51c4.06-0.33,7.82-2.22,10.39-5.25c2.58-3.03,3.76-6.95,3.35-10.91l0,0
		c-0.75-7.27-1.65-14.05-2.8-20.97c-6.59-60.52-52.62-134.59-123.46-132.55c-65.94-0.41-122.69,33.59-168.76,73.59
		C177.45,139.91,172.45,144.64,167.64,149.47z"/>
	<path d="M650.54,174.24c2.88-2.74,4.54-6.5,4.58-10.48c0.04-3.98-1.54-7.85-4.38-10.73c-2.83-2.88-6.67-4.54-10.65-4.58
		c-3.98-0.04-7.77,1.55-10.57,4.38l0,0c-5.44,5.53-11.54,10.67-18.09,15.38c-129.26,76.44-301.95,60.65-453.47,37.8
		c-8.14-1.54-17.23-3.47-25.17-5.48c-1.71-0.43-3.53-0.17-5.07,0.73c-1.53,0.9-2.65,2.35-3.11,4.05c-0.46,1.7-0.23,3.52,0.64,5.07
		c0.87,1.55,2.31,2.7,4,3.19l0,0c8.25,2.38,17.52,4.62,25.8,6.48c154.65,26.95,322.16,53.29,472.98-27.84
		C635.96,186.88,643.56,180.9,650.54,174.24z"/>
	<path d="M651.51,224.41c0.32-3.97-0.96-7.86-3.61-10.84c-2.64-2.97-6.43-4.78-10.49-5.02c-4.06-0.24-8.03,1.11-11,3.75
		c-2.98,2.64-4.7,6.36-4.85,10.34l0,0c-0.19,5.6-0.9,11.5-2,17.3C598.12,352.64,466.33,405.8,352.63,396.96
		c-6.34-0.25-12.82-0.63-19.44-1.15c-1.75-0.13-3.49,0.44-4.85,1.58c-1.36,1.14-2.21,2.75-2.39,4.49c-0.17,1.74,0.36,3.49,1.47,4.87
		c1.11,1.38,2.71,2.29,4.45,2.49l0,0c6.75,0.8,13.37,1.47,19.87,2.01c114.82,13.71,264.03-32.83,296.35-165.23
		C649.73,239.03,650.94,231.75,651.51,224.41z"/>
	<path d="M515.99,388.86c-0.2-3.97-1.98-7.66-5.01-10.25c-3.02-2.58-7.05-3.85-11.12-3.54c-4.07,0.32-7.85,2.2-10.43,5.23
		c-2.59,3.02-3.77,6.94-3.35,10.9l0,0c0.54,5.09,1.07,10.18,1.61,15.27c0.33,3.17,0.67,6.33,1,9.5c-0.49-5.19,2.63-10.78,7.53-13.03
		c-74.65,35.56-169.7,39.7-251.25,16.84c-4.57-1.6-9.08-3.45-13.05-5.6c-1.53-0.83-3.36-1.02-5.06-0.54
		c-1.7,0.48-3.14,1.58-4.01,3.09c-0.87,1.51-1.11,3.31-0.68,5.02c0.43,1.71,1.5,3.2,2.98,4.12l0,0c4.74,2.9,9.74,5.25,14.72,7.3
		c86.72,28.77,180.99,30.83,268.76-4.46c5.63-2.59,9.2-8.99,8.64-14.98c-0.16-3.18-0.33-6.36-0.49-9.54
		C516.52,399.08,516.25,393.97,515.99,388.86z"/>
	<path d="M90.02,183.77c-0.06-3.98-1.7-7.72-4.66-10.38c-2.95-2.67-6.97-4.04-11.09-3.83c-4.12,0.21-7.98,1.99-10.64,4.94
		c-2.67,2.95-3.92,6.84-3.57,10.8l0,0c0.34,4,0.83,8.16,1.39,12.09c10.81,69.53,44.4,143.28,112.03,173.57
		c3.7,1.63,7.32,3.05,11.13,4.37c1.63,0.56,3.45,0.44,5.05-0.3c1.6-0.74,2.83-2.05,3.45-3.66c0.62-1.61,0.58-3.41-0.1-5.03
		c-0.68-1.62-1.95-2.93-3.54-3.61l0,0c-3.37-1.45-6.54-2.97-9.77-4.68c-58.26-31.08-84.08-100.34-89.25-163.78
		C90.21,190.78,90.05,187.14,90.02,183.77z"/>
</g>
<g>
	<g>
		<rect x="953.17" y="72.86" class="st5" width="978" height="186"/>
		<path d="M969.04,64.46h111.49c37.58,0,61.55,21.67,61.55,57.96c0,24.7-10.88,41.58-29.42,49.64l26.7,68.8h-60.07l-21.75-62.75
			h-35.84v62.75h-52.66V64.46z M1067.42,139.05c10.38,0,17.55-3.78,17.55-14.87c0-10.84-7.17-14.36-17.55-14.36h-45.73v29.23
			H1067.42z"/>
		<path d="M1193,64.46h94.43l43.51,176.4h-56.61l-6.67-27.72h-54.88l-6.67,27.72h-56.61L1193,64.46z M1222.91,169.79h34.36
			l-14.34-59.98h-5.69L1222.91,169.79z"/>
		<path d="M1347,64.46h53.64l43.51,55.94h2.47l43.51-55.94h53.64v176.4h-54.39V139.3h-2.47l-40.29,53.42h-2.47l-40.29-53.42h-2.47
			v101.56H1347V64.46z"/>
		<path d="M1568.49,64.46h146.59v45.36h-90.72v20.16h90.72v45.36h-90.72v20.16h90.72v45.36h-146.59V64.46z"/>
		<path d="M1737.33,64.46h59.33l63.78,95.51h1.73V64.46h53.15v176.4h-59.33l-63.53-95.26h-1.98v95.26h-53.15V64.46z"/>
	</g>
	<g>
		<rect x="906.92" y="270" class="st5" width="1070.51" height="160"/>
		<path d="M1045.29,279.46c13.36,7.68,20.19,19.05,20.51,34.12v2.58H1017v-0.86c0-4.3-1.73-7.89-5.19-10.76
			c-3.46-2.87-8.72-4.31-15.8-4.31c-6.92,0-12.22,0.94-15.91,2.8c-3.7,1.87-5.54,4.16-5.54,6.89c0,3.87,2.51,6.75,7.54,8.61
			c5.03,1.87,13.12,3.8,24.28,5.81c13.04,2.44,23.77,4.99,32.18,7.64c8.4,2.66,15.75,7,22.04,13.02c6.29,6.03,9.51,14.21,9.67,24.54
			c0,17.51-6.48,30.5-19.45,38.96c-12.97,8.47-30.29,12.7-51.98,12.7c-25.31,0-44.99-3.87-59.05-11.62
			c-14.07-7.75-21.1-21.45-21.1-41.11h49.27c0,7.46,2.12,12.45,6.37,14.96c4.24,2.51,10.84,3.77,19.8,3.77
			c6.6,0,12.06-0.65,16.38-1.94c4.32-1.29,6.48-3.95,6.48-7.96c0-3.58-2.4-6.28-7.19-8.07c-4.8-1.79-12.61-3.69-23.46-5.7
			c-13.2-2.58-24.13-5.27-32.77-8.07c-8.65-2.8-16.19-7.43-22.63-13.88c-6.45-6.46-9.67-15.21-9.67-26.26
			c0-16.21,6.88-28.16,20.63-35.84c13.75-7.67,31.16-11.52,52.22-11.52C1014.88,267.95,1031.93,271.79,1045.29,279.46z"/>
		<path d="M1218.8,284.42c13.99,10.98,20.98,26.66,20.98,47.03h-49.74c0-8.61-2.47-15.42-7.43-20.45
			c-4.95-5.02-11.99-7.53-21.1-7.53c-10.53,0-18.27,3.01-23.22,9.04c-4.95,6.03-7.43,14.42-7.43,25.18v13.78
			c0,10.62,2.47,18.98,7.43,25.08c4.95,6.1,12.53,9.15,22.75,9.15c10.05,0,17.68-2.37,22.87-7.1c5.19-4.74,7.78-11.41,7.78-20.02
			h48.09c0,20.23-6.8,35.73-20.39,46.49c-13.6,10.76-32.81,16.14-57.64,16.14c-27.66,0-48.61-6.46-62.83-19.37
			c-14.23-12.92-21.34-32-21.34-57.26c0-25.25,7.11-44.34,21.34-57.26c14.22-12.92,35.16-19.37,62.83-19.37
			C1185.8,267.95,1204.81,273.44,1218.8,284.42z"/>
		<path d="M1365.44,418.62v-56.18h-57.29v56.18h-52.1V270.53h52.1v54.03h57.29v-54.03h52.1v148.09H1365.44z"/>
		<path d="M1440.64,270.53h140.27v35.52h-88.17v20.45h75.44v34.01h-75.44v22.6h89.82v35.52h-141.92V270.53z"/>
		<path d="M1738.39,418.62v-53.38c0-6.6,0.27-13.38,0.83-20.34c0.55-6.96,1.14-12.81,1.77-17.54c0.63-4.74,1.02-7.75,1.18-9.04
			h-0.94l-29.94,100.31h-40.78l-30.18-100.09h-0.94c0.15,1.29,0.59,4.27,1.3,8.93c0.71,4.67,1.37,10.48,2,17.44
			c0.62,6.96,0.94,13.74,0.94,20.34v53.38h-47.86V270.53h73.55l24.52,85.45h0.94l24.28-85.45h70.96v148.09H1738.39z"/>
		<path d="M1918.5,418.62l-6.84-20.88h-56.81l-6.84,20.88h-53.28l59.17-148.09h60.59l59.17,148.09H1918.5z M1865.69,364.6h35.13
			l-16.97-52.74h-0.94L1865.69,364.6z"/>
	</g>
	<g>
		<path d="M871.85,56.47h-8.1c-5.4,0-10.35,1.35-15.3,6.75c-7.2,8.1-10.35,23.4-10.35,39.6v63.9c0,32.4-12.15,59.4-31.5,72.45v0.9
			c18.45,12.15,31.5,38.7,31.5,72.45v63c0,25.2,6.3,47.25,25.2,47.25h8.55v23.85h-22.5c-24.75,0-39.6-21.6-39.6-56.25v-67.5
			c0-46.35-10.35-71.1-32.4-71.1v-23.85c22.5,0,32.4-25.65,32.4-70.65V87.52c0-23.4,8.55-54.9,40.05-54.9h22.05V56.47z"/>
	</g>
	<g>
		<path d="M2020,34.6h22.5c28.35,0,39.6,27.45,39.6,54.9v68.85c0,45.45,9.9,71.1,32.4,71.1v23.85c-23.85,0-32.4,28.8-32.4,70.65
			v68.85c0,31.95-13.5,55.8-39.6,55.8H2020v-23.85h8.55c21.6,0,25.2-28.8,25.2-47.25v-64.35c0-28.35,10.8-57.15,31.5-71.1v-0.9
			c-19.35-13.05-31.5-40.05-31.5-72v-64.8c0-17.55-4.05-45.9-25.2-45.9H2020V34.6z"/>
	</g>
</g>
</svg>
